<?xml version="1.0" encoding="utf-8"?>
<!-- Generator: Adobe Illustrator 16.0.3, SVG Export Plug-In . SVG Version: 6.00 Build 0)  -->
<!DOCTYPE svg PUBLIC "-//W3C//DTD SVG 1.1//EN" "http://www.w3.org/Graphics/SVG/1.1/DTD/svg11.dtd">
<svg version="1.1" id="Layer_1" xmlns="http://www.w3.org/2000/svg" xmlns:xlink="http://www.w3.org/1999/xlink" x="0px" y="0px"
	 width="50px" height="50px" viewBox="0 0 50 50" enable-background="new 0 0 50 50" xml:space="preserve">
<circle id="behance_3_" fill="none" stroke="#FFFFFF" stroke-miterlimit="10" cx="25" cy="25.04" r="23.513"/>
<path id="behance_2_" fill="#FFFFFF" d="M24.041,19.161c0.439,0.612,0.66,1.343,0.66,2.194c0,0.879-0.22,1.584-0.665,2.119
	c-0.25,0.3-0.615,0.572-1.098,0.818c0.734,0.27,1.287,0.691,1.662,1.271c0.373,0.579,0.561,1.282,0.561,2.106
	c0,0.854-0.213,1.617-0.643,2.295c-0.271,0.447-0.61,0.825-1.017,1.13c-0.459,0.354-0.999,0.593-1.624,0.724
	c-0.625,0.132-1.302,0.195-2.032,0.195h-6.481V17.628h6.95C22.067,17.653,23.31,18.165,24.041,19.161z M16.23,20.126V23.3h3.497
	c0.624,0,1.131-0.12,1.522-0.359c0.388-0.237,0.583-0.659,0.583-1.261c0-0.673-0.257-1.116-0.772-1.329
	c-0.445-0.15-1.011-0.225-1.699-0.225H16.23z M16.23,25.679v3.834h3.492c0.623,0,1.109-0.084,1.457-0.251
	c0.631-0.316,0.946-0.914,0.946-1.797c0-0.748-0.304-1.262-0.916-1.542c-0.342-0.157-0.821-0.239-1.438-0.244H16.23z M33.854,21.591
	c0.744,0.331,1.356,0.855,1.837,1.573c0.439,0.633,0.722,1.367,0.851,2.199c0.074,0.49,0.105,1.195,0.092,2.111h-7.749
	c0.046,1.069,0.414,1.816,1.114,2.245c0.425,0.268,0.936,0.398,1.532,0.398c0.633,0,1.148-0.161,1.543-0.484
	c0.218-0.176,0.41-0.422,0.574-0.734h2.84c-0.075,0.631-0.42,1.273-1.03,1.925c-0.953,1.033-2.286,1.549-4.002,1.549
	c-1.416,0-2.666-0.434-3.745-1.308c-1.085-0.872-1.624-2.292-1.624-4.256c0-1.845,0.487-3.258,1.463-4.243
	c0.979-0.982,2.246-1.474,3.805-1.474C32.28,21.092,33.114,21.258,33.854,21.591z M29.694,23.993
	c-0.393,0.406-0.64,0.954-0.74,1.646h4.793c-0.051-0.738-0.299-1.296-0.74-1.681c-0.445-0.382-0.995-0.572-1.651-0.572
	C30.643,23.386,30.089,23.588,29.694,23.993z M34.398,18.298h-6.164v1.789h6.164V18.298z"/>
</svg>
