<?xml version="1.0" encoding="utf-8"?>
<!-- Generator: Adobe Illustrator 16.0.3, SVG Export Plug-In . SVG Version: 6.00 Build 0)  -->
<!DOCTYPE svg PUBLIC "-//W3C//DTD SVG 1.1//EN" "http://www.w3.org/Graphics/SVG/1.1/DTD/svg11.dtd">
<svg version="1.1" id="Layer_1" xmlns="http://www.w3.org/2000/svg" xmlns:xlink="http://www.w3.org/1999/xlink" x="0px" y="0px"
	 width="64.316px" height="80px" viewBox="0 0.626 64.316 80" enable-background="new 0 0.626 64.316 80" xml:space="preserve">
<g id="TEMP">
</g>
<g>
	<polygon fill="#FFFFFF" points="32.788,69.959 37.728,74.899 39.075,73.553 32.808,67.287 26.222,73.68 27.549,75.047 	"/>
	<polygon fill="#FFFFFF" points="26.222,77.276 27.548,78.646 32.808,73.554 37.75,78.495 39.096,77.148 32.831,70.882 	"/>
	<polygon fill="#FFFFFF" points="59.305,47.123 59.305,45.218 33.587,45.218 33.587,20.869 37.762,25.043 39.109,23.696 
		32.861,17.449 26.242,23.5 27.528,24.907 31.682,21.109 31.682,45.218 5.01,45.218 5.01,47.123 31.682,47.123 31.682,64.802 
		26.222,70.083 27.548,71.452 32.808,66.362 37.75,71.303 39.096,69.955 33.587,64.447 33.587,47.123 	"/>
	<path fill="#FFFFFF" d="M29.952,6.481l5.657,7.549c0.154,0.224,0.387,0.348,0.654,0.348h0.824V3.36h-1.593v7.872l-5.639-7.547
		c-0.092-0.121-0.193-0.206-0.304-0.256C29.45,3.383,29.335,3.36,29.198,3.36h-0.83v11.019h1.584V6.481L29.952,6.481z"/>
</g>
<g id="BLOG">
</g>
<g id="BLOG_ROLL">
</g>
<g id="APP_PAGE">
</g>
<g id="APP_PAGE_2">
	<g id="Layer_8">
	</g>
	<g id="Layer_7">
	</g>
</g>
<g id="APP_LOGIN">
</g>
</svg>
