<?xml version="1.0" encoding="utf-8"?>
<!-- Generator: Adobe Illustrator 16.0.3, SVG Export Plug-In . SVG Version: 6.00 Build 0)  -->
<!DOCTYPE svg PUBLIC "-//W3C//DTD SVG 1.1//EN" "http://www.w3.org/Graphics/SVG/1.1/DTD/svg11.dtd">
<svg version="1.1" id="Layer_1" xmlns="http://www.w3.org/2000/svg" xmlns:xlink="http://www.w3.org/1999/xlink" x="0px" y="0px"
	 width="155.5px" height="80px" viewBox="0 0.626 155.5 80" enable-background="new 0 0.626 155.5 80" xml:space="preserve">
<g id="TEMP">
</g>
<g id="BLOG">
</g>
<g id="BLOG_ROLL">
</g>
<g id="APP_PAGE">
</g>
<g id="APP_PAGE_2">
	<g id="Layer_8">
	</g>
	<g id="Layer_7">
	</g>
</g>
<g id="APP_LOGIN">
</g>
<g>
	<path fill="none" stroke="#FFFFFF" stroke-width="2" stroke-linecap="round" stroke-linejoin="round" stroke-miterlimit="10" d="
		M79.004,40.626"/>
	<g>
		
			<line fill="none" stroke="#FFFFFF" stroke-width="2" stroke-linecap="round" stroke-linejoin="round" stroke-miterlimit="10" x1="126.25" y1="42.19" x2="152.25" y2="42.19"/>
		<path fill="none" stroke="#FFFFFF" stroke-width="2" stroke-linecap="round" stroke-linejoin="round" stroke-miterlimit="10" d="
			M91.271,35.974c22.31-11.105,30.061-3.852,30.061,4.939c0,8.785-10.164,15.908-22.701,15.908S67.27,37.453,48.456,37.4"/>
		<path fill="none" stroke="#FFFFFF" stroke-width="2" stroke-linecap="round" stroke-linejoin="round" stroke-miterlimit="10" d="
			M84.064,38.912c-2.309,0-8.476,3.415-9.408,3.282"/>
		<path fill="none" stroke="#FFFFFF" stroke-width="2" stroke-linecap="round" stroke-linejoin="round" stroke-miterlimit="10" d="
			M66.714,45.278c-22.307,11.105-30.058,3.854-30.058-4.933c0-8.791,10.162-15.914,22.699-15.914
			c12.537,0,31.36,19.373,50.174,19.423"/>
		
			<line fill="none" stroke="#FFFFFF" stroke-width="2" stroke-linecap="round" stroke-linejoin="round" stroke-miterlimit="10" x1="3.25" y1="38.191" x2="31.25" y2="38.191"/>
	</g>
</g>
</svg>
