<?xml version="1.0" encoding="utf-8"?>
<!-- Generator: Adobe Illustrator 16.0.3, SVG Export Plug-In . SVG Version: 6.00 Build 0)  -->
<!DOCTYPE svg PUBLIC "-//W3C//DTD SVG 1.1//EN" "http://www.w3.org/Graphics/SVG/1.1/DTD/svg11.dtd">
<svg version="1.1" id="Layer_1" xmlns="http://www.w3.org/2000/svg" xmlns:xlink="http://www.w3.org/1999/xlink" x="0px" y="0px"
	 width="50px" height="50px" viewBox="0 0 50 50" enable-background="new 0 0 50 50" xml:space="preserve">
<g>
	<circle id="twit_3_" fill="none" stroke="#FFFFFF" stroke-miterlimit="10" cx="25" cy="25.001" r="23.513"/>
	<path id="twit_2_" fill="#FFFFFF" d="M38.301,17.617c-0.877,0.387-1.818,0.65-2.807,0.769c1.01-0.604,1.783-1.563,2.148-2.703
		c-0.943,0.559-1.99,0.966-3.103,1.185c-0.892-0.951-2.16-1.542-3.563-1.542c-2.699,0-4.886,2.187-4.886,4.883
		c0,0.384,0.043,0.756,0.125,1.113c-4.057-0.204-7.658-2.147-10.065-5.103c-0.421,0.722-0.662,1.56-0.662,2.455
		c0,1.693,0.862,3.189,2.173,4.065c-0.801-0.026-1.553-0.245-2.211-0.609c-0.001,0.019-0.001,0.04-0.001,0.061
		c0,2.365,1.684,4.341,3.918,4.788c-0.41,0.112-0.842,0.172-1.287,0.172c-0.315,0-0.62-0.03-0.918-0.086
		c0.621,1.939,2.426,3.352,4.563,3.391c-1.672,1.311-3.778,2.091-6.066,2.091c-0.394,0-0.783-0.022-1.165-0.067
		c2.161,1.386,4.729,2.193,7.487,2.193c8.984,0,13.896-7.441,13.896-13.896c0-0.212-0.004-0.422-0.015-0.632
		C36.818,19.456,37.646,18.596,38.301,17.617z"/>
</g>
</svg>
