<?xml version="1.0" encoding="utf-8"?>
<!-- Generator: Adobe Illustrator 19.0.1, SVG Export Plug-In . SVG Version: 6.00 Build 0)  -->
<svg version="1.1" id="Layer_1" xmlns="http://www.w3.org/2000/svg" xmlns:xlink="http://www.w3.org/1999/xlink" x="0px" y="0px"
	 viewBox="0 0 50 50" style="enable-background:new 0 0 50 50;" xml:space="preserve">
<style type="text/css">
	.st0{fill:none;stroke:#E6E6E6;stroke-miterlimit:10;}
	.st1{clip-path:url(#SVGID_2_);fill:#FD6D6D;}
	.st2{fill:#FD6D6D;}
	.st3{fill:#FFFFFF;}
	.st4{fill:#007D90;}
	.st5{fill:#B3B3B3;}
	.st6{fill:none;stroke:#007D90;stroke-width:2;stroke-miterlimit:10;}
	.st7{fill:none;stroke:#000000;stroke-miterlimit:10;}
	.st8{fill:none;stroke:#007D90;stroke-miterlimit:10;}
	.st9{fill:none;stroke:#999999;stroke-miterlimit:10;}
	.st10{fill-rule:evenodd;clip-rule:evenodd;fill:#007D90;}
	.st11{fill:none;stroke:#FD6D6D;stroke-miterlimit:10;}
	.st12{fill:none;stroke:#FD6D6D;stroke-miterlimit:10;stroke-dasharray:12,12;}
	.st13{fill:none;stroke:#FD6D6D;stroke-miterlimit:10;stroke-dasharray:14,14;}
	.st14{fill:none;stroke:#B3B3B3;stroke-miterlimit:10;}
	.st15{fill:none;stroke:#4D4D4D;stroke-miterlimit:10;}
	.st16{fill:#4D4D4D;}
	.st17{fill:none;stroke:#808080;stroke-miterlimit:10;}
	.st18{fill:none;stroke:#808080;stroke-linejoin:round;stroke-miterlimit:10;}
	.st19{opacity:0.8;fill:#FFFFFF;}
	.st20{fill:#808080;}
</style>
<g>
	<g>
		<path class="st10" d="M22.8,28.6c-0.7-0.2-1.4-0.3-2.2-0.3c-3.3,0-6.3,2-6.3,4.5c0,2.5,2.4,4.7,5.8,4.7c4.7,0,6.3-2,6.3-4.5
			c0-0.3,0-0.6-0.1-0.9C25.9,30.6,24.6,29.9,22.8,28.6z"/>
		<path class="st10" d="M24.3,17.3c-0.4-2.9-2.5-5.3-4.8-5.4c-2.2-0.1-3.8,2.2-3.4,5.1c0.4,2.9,2.5,5.4,4.8,5.5
			C23.2,22.6,24.7,20.3,24.3,17.3z"/>
		<path class="st10" d="M25,2.8C12.8,2.8,2.8,12.8,2.8,25S12.8,47.2,25,47.2c12.2,0,22.2-9.9,22.2-22.2S37.2,2.8,25,2.8z M20.1,38.8
			c-4.8,0-8.9-2-8.9-5.1c0-3.2,3.7-6.3,8.6-6.3c0.5,0,1,0,1.5,0C20.6,26.8,20,26,20,25.1c0-0.6,0.2-1.1,0.4-1.6
			c-0.3,0-0.5,0.1-0.8,0.1c-4,0-6.6-2.3-6.6-5.8c0-3.4,3.7-5.7,7.6-5.7c2.2,0,8.5,0,8.5,0l-1.4,1h-3.1c1.8,0,2.8,2.4,2.8,4.6
			c0,1.8-1,3.1-2.5,4.2c-1.4,1.1-1.7,1.5-1.7,2.4c0,0.8,1.5,2.1,2.3,2.7c2.3,1.6,3,3.1,3,5.7C28.6,35.7,25.6,38.8,20.1,38.8z M41,26
			h-4v4h-3v-4h-4v-3h4v-4h3v4h4V26z"/>
	</g>
</g>
</svg>
