<?xml version="1.0" encoding="utf-8"?>
<!-- Generator: Adobe Illustrator 19.0.1, SVG Export Plug-In . SVG Version: 6.00 Build 0)  -->
<svg version="1.1" id="Layer_1" xmlns="http://www.w3.org/2000/svg" xmlns:xlink="http://www.w3.org/1999/xlink" x="0px" y="0px"
	 viewBox="0 0 50 50" style="enable-background:new 0 0 50 50;" xml:space="preserve">
<style type="text/css">
	.st0{fill:none;stroke:#E6E6E6;stroke-miterlimit:10;}
	.st1{clip-path:url(#SVGID_2_);fill:#FD6D6D;}
	.st2{fill:#FD6D6D;}
	.st3{fill:#FFFFFF;}
	.st4{fill:#007D90;}
	.st5{fill:#B3B3B3;}
	.st6{fill:none;stroke:#007D90;stroke-width:2;stroke-miterlimit:10;}
	.st7{fill:none;stroke:#000000;stroke-miterlimit:10;}
	.st8{fill:none;stroke:#007D90;stroke-miterlimit:10;}
	.st9{fill:none;stroke:#999999;stroke-miterlimit:10;}
	.st10{fill-rule:evenodd;clip-rule:evenodd;fill:#007D90;}
	.st11{fill:none;stroke:#FD6D6D;stroke-miterlimit:10;}
	.st12{fill:none;stroke:#FD6D6D;stroke-miterlimit:10;stroke-dasharray:12,12;}
	.st13{fill:none;stroke:#FD6D6D;stroke-miterlimit:10;stroke-dasharray:14,14;}
	.st14{fill:none;stroke:#B3B3B3;stroke-miterlimit:10;}
	.st15{fill:none;stroke:#4D4D4D;stroke-miterlimit:10;}
	.st16{fill:#4D4D4D;}
	.st17{fill:none;stroke:#808080;stroke-miterlimit:10;}
	.st18{fill:none;stroke:#808080;stroke-linejoin:round;stroke-miterlimit:10;}
	.st19{opacity:0.8;fill:#FFFFFF;}
	.st20{fill:#808080;}
</style>
<path class="st10" d="M25,2.8C12.8,2.8,2.8,12.8,2.8,25c0,12.2,9.9,22.2,22.2,22.2S47.2,37.2,47.2,25C47.2,12.8,37.2,2.8,25,2.8z
	 M18.1,37.5h-5.5V18.1h5.5V37.5z M15.3,16.7c-1.5,0-2.8-1.2-2.8-2.8s1.2-2.8,2.8-2.8c1.5,0,2.8,1.2,2.8,2.8S16.8,16.7,15.3,16.7z
	 M37.5,37.5h-5.5V26.4c0-1.8-1-2.8-2.8-2.8c-1.8,0-2.8,1-2.8,2.8v11.1h-5.5V18.1h5.5v2.8c0.3-1.4,1-2.8,4.8-2.8
	c5.5,0,6.2,4.2,6.2,9.7V37.5z"/>
</svg>
