<?xml version="1.0" encoding="utf-8"?>
<!-- Generator: Adobe Illustrator 19.0.1, SVG Export Plug-In . SVG Version: 6.00 Build 0)  -->
<svg version="1.1" id="Layer_1" xmlns="http://www.w3.org/2000/svg" xmlns:xlink="http://www.w3.org/1999/xlink" x="0px" y="0px"
	 viewBox="0 0 50 50" style="enable-background:new 0 0 50 50;" xml:space="preserve">
<style type="text/css">
	.st0{fill:none;stroke:#E6E6E6;stroke-miterlimit:10;}
	.st1{clip-path:url(#SVGID_2_);fill:#FD6D6D;}
	.st2{fill:#FD6D6D;}
	.st3{fill:#FFFFFF;}
	.st4{fill:#007D90;}
	.st5{fill:#B3B3B3;}
	.st6{fill:none;stroke:#007D90;stroke-width:2;stroke-miterlimit:10;}
	.st7{fill:none;stroke:#000000;stroke-miterlimit:10;}
	.st8{fill:none;stroke:#007D90;stroke-miterlimit:10;}
	.st9{fill:none;stroke:#999999;stroke-miterlimit:10;}
	.st10{fill-rule:evenodd;clip-rule:evenodd;fill:#007D90;}
	.st11{fill:none;stroke:#FD6D6D;stroke-miterlimit:10;}
	.st12{fill:none;stroke:#FD6D6D;stroke-miterlimit:10;stroke-dasharray:12,12;}
	.st13{fill:none;stroke:#FD6D6D;stroke-miterlimit:10;stroke-dasharray:14,14;}
	.st14{fill:none;stroke:#B3B3B3;stroke-miterlimit:10;}
	.st15{fill:none;stroke:#4D4D4D;stroke-miterlimit:10;}
	.st16{fill:#4D4D4D;}
	.st17{fill:none;stroke:#808080;stroke-miterlimit:10;}
	.st18{fill:none;stroke:#808080;stroke-linejoin:round;stroke-miterlimit:10;}
	.st19{opacity:0.8;fill:#FFFFFF;}
	.st20{fill:#808080;}
</style>
<path class="st4" d="M25,2.8C12.8,2.8,2.8,12.8,2.8,25c0,12.2,9.9,22.2,22.2,22.2c12.2,0,22.2-9.9,22.2-22.2
	C47.2,12.8,37.2,2.8,25,2.8z M25,19.5c-0.8,0-1.4,0.6-1.4,1.4v8.3c0,3.1-2.5,5.5-5.5,5.5c-3.1,0-5.5-2.5-5.5-5.5V25h4.2v4.2
	c0,0.8,0.6,1.4,1.4,1.4c0.8,0,1.4-0.6,1.4-1.4v-8.3c0-3.1,2.5-5.5,5.5-5.5c3.1,0,5.5,2.5,5.5,5.5v2.8l-2.1-0.7l-2.1,0.7v-2.8
	C26.4,20.1,25.8,19.5,25,19.5z M37.5,29.2c0,3.1-2.5,5.5-5.5,5.5s-5.5-2.5-5.5-5.5V25l2.1,0.7l2.1-0.7v4.2c0,0.8,0.6,1.4,1.4,1.4
	c0.8,0,1.4-0.6,1.4-1.4V25h4.2V29.2z"/>
</svg>
