<?xml version="1.0" encoding="utf-8"?>
<!-- Generator: Adobe Illustrator 19.0.1, SVG Export Plug-In . SVG Version: 6.00 Build 0)  -->
<svg version="1.1" id="Layer_1" xmlns="http://www.w3.org/2000/svg" xmlns:xlink="http://www.w3.org/1999/xlink" x="0px" y="0px"
	 viewBox="0 0 50 50" style="enable-background:new 0 0 50 50;" xml:space="preserve">
<style type="text/css">
	.st0{fill:none;stroke:#E6E6E6;stroke-miterlimit:10;}
	.st1{clip-path:url(#SVGID_2_);fill:#FD6D6D;}
	.st2{fill:#FD6D6D;}
	.st3{fill:#FFFFFF;}
	.st4{fill:#007D90;}
	.st5{fill:#B3B3B3;}
	.st6{fill:none;stroke:#007D90;stroke-width:2;stroke-miterlimit:10;}
	.st7{fill:none;stroke:#000000;stroke-miterlimit:10;}
	.st8{fill:none;stroke:#007D90;stroke-miterlimit:10;}
	.st9{fill:none;stroke:#999999;stroke-miterlimit:10;}
	.st10{fill-rule:evenodd;clip-rule:evenodd;fill:#007D90;}
	.st11{fill:none;stroke:#FD6D6D;stroke-miterlimit:10;}
	.st12{fill:none;stroke:#FD6D6D;stroke-miterlimit:10;stroke-dasharray:12,12;}
	.st13{fill:none;stroke:#FD6D6D;stroke-miterlimit:10;stroke-dasharray:14,14;}
	.st14{fill:none;stroke:#B3B3B3;stroke-miterlimit:10;}
	.st15{fill:none;stroke:#4D4D4D;stroke-miterlimit:10;}
	.st16{fill:#4D4D4D;}
	.st17{fill:none;stroke:#808080;stroke-miterlimit:10;}
	.st18{fill:none;stroke:#808080;stroke-linejoin:round;stroke-miterlimit:10;}
	.st19{opacity:0.8;fill:#FFFFFF;}
	.st20{fill:#808080;}
</style>
<path class="st10" d="M25,2.8C12.8,2.8,2.8,12.8,2.8,25S12.8,47.2,25,47.2c12.2,0,22.2-9.9,22.2-22.2S37.2,2.8,25,2.8z M34.7,38.3
	c-1.3,0.8-2.8,1.3-3.9,1.6c-1.1,0.3-2.2,0.4-3.5,0.4c-1.3,0-2.6-0.1-3.8-0.5c-1.1-0.4-1.7-0.8-2.5-1.4c-0.8-0.7-1.1-1.3-1.4-2.1
	c-0.3-0.6-0.2-1.7-0.2-3.2V22.2h-4.2v-4.4c3.1,0,5.5-2.5,5.5-5.5V9.8h5.5v6.9h6.9v5.5h-6.9v8c0,1.8,0,2.2,0,2.8c0,0.6,0.5,1.2,1,1.5
	c0.7,0.4,1.5,0.6,2.4,0.6c1.6,0,3.4-0.5,4.9-1.7V38.3z"/>
</svg>
