<?xml version="1.0" encoding="utf-8"?>
<!-- Generator: Adobe Illustrator 19.0.1, SVG Export Plug-In . SVG Version: 6.00 Build 0)  -->
<svg version="1.1" id="Layer_1" xmlns="http://www.w3.org/2000/svg" xmlns:xlink="http://www.w3.org/1999/xlink" x="0px" y="0px"
	 viewBox="0 0 50 50" style="enable-background:new 0 0 50 50;" xml:space="preserve">
<style type="text/css">
	.st0{fill:none;stroke:#E6E6E6;stroke-miterlimit:10;}
	.st1{clip-path:url(#SVGID_2_);fill:#FD6D6D;}
	.st2{fill:#FD6D6D;}
	.st3{fill:#FFFFFF;}
	.st4{fill:#007D90;}
	.st5{fill:#B3B3B3;}
	.st6{fill:none;stroke:#007D90;stroke-width:2;stroke-miterlimit:10;}
	.st7{fill:none;stroke:#000000;stroke-miterlimit:10;}
	.st8{fill:none;stroke:#007D90;stroke-miterlimit:10;}
	.st9{fill:none;stroke:#999999;stroke-miterlimit:10;}
	.st10{fill-rule:evenodd;clip-rule:evenodd;fill:#007D90;}
	.st11{fill-rule:evenodd;clip-rule:evenodd;fill:#FFFFFF;}
	.st12{fill:none;stroke:#FD6D6D;stroke-miterlimit:10;}
	.st13{fill:none;stroke:#FD6D6D;stroke-miterlimit:10;stroke-dasharray:12,12;}
	.st14{fill:none;stroke:#FD6D6D;stroke-miterlimit:10;stroke-dasharray:14,14;}
	.st15{fill:none;stroke:#B3B3B3;stroke-miterlimit:10;}
	.st16{fill:none;stroke:#4D4D4D;stroke-miterlimit:10;}
	.st17{fill:#4D4D4D;}
	.st18{fill:none;stroke:#808080;stroke-miterlimit:10;}
	.st19{fill:none;stroke:#808080;stroke-linejoin:round;stroke-miterlimit:10;}
	.st20{opacity:0.8;fill:#FFFFFF;}
	.st21{fill:#808080;}
</style>
<path class="st3" d="M25,47.2C12.8,47.2,2.8,37.2,2.8,25C2.8,12.8,12.8,2.8,25,2.8c12.2,0,22.2,9.9,22.2,22.2
	C47.2,37.2,37.2,47.2,25,47.2z M43.7,28c-0.6-0.2-5.9-1.8-11.8-0.8c2.5,6.8,3.5,12.3,3.7,13.5C39.8,37.8,42.8,33.3,43.7,28z
	 M32.4,42.5c-0.3-1.7-1.4-7.4-4-14.4l-0.1,0C17.6,31.9,13.7,39.3,13.4,40c3.2,2.5,7.2,4,11.6,4C27.6,44,30.1,43.4,32.4,42.5z
	 M10.9,37.7c0.4-0.7,5.6-9.3,15.4-12.5c0.2-0.1,0.5-0.2,0.7-0.2c-0.5-1.1-1-2.2-1.5-3.2c-9.5,2.8-18.6,2.7-19.5,2.7
	c0,0.2,0,0.4,0,0.6C6.1,29.9,7.9,34.3,10.9,37.7z M6.5,21.2c0.8,0,8.6,0,17.5-2.3c-3.1-5.6-6.5-10.3-7-10.9
	C11.7,10.4,7.7,15.3,6.5,21.2z M20.6,6.6c0.5,0.7,4,5.4,7.1,11.1c6.7-2.5,9.6-6.4,9.9-6.8c-3.3-3-7.7-4.8-12.5-4.8
	C23.5,6.1,22,6.3,20.6,6.6z M39.7,13.1c-0.4,0.5-3.6,4.6-10.6,7.5c0.4,0.9,0.9,1.8,1.3,2.7c0.1,0.3,0.3,0.7,0.4,1
	c6.3-0.8,12.6,0.5,13.2,0.6C43.9,20.4,42.3,16.3,39.7,13.1z"/>
</svg>
