<?xml version="1.0" encoding="utf-8"?>
<!-- Generator: Adobe Illustrator 19.0.1, SVG Export Plug-In . SVG Version: 6.00 Build 0)  -->
<svg version="1.1" id="Layer_1" xmlns="http://www.w3.org/2000/svg" xmlns:xlink="http://www.w3.org/1999/xlink" x="0px" y="0px"
	 viewBox="0 0 50 50" style="enable-background:new 0 0 50 50;" xml:space="preserve">
<style type="text/css">
	.st0{fill:none;stroke:#E6E6E6;stroke-miterlimit:10;}
	.st1{clip-path:url(#SVGID_2_);fill:#FD6D6D;}
	.st2{fill:#FD6D6D;}
	.st3{fill:#FFFFFF;}
	.st4{fill:#007D90;}
	.st5{fill:#B3B3B3;}
	.st6{fill:none;stroke:#007D90;stroke-width:2;stroke-miterlimit:10;}
	.st7{fill:none;stroke:#000000;stroke-miterlimit:10;}
	.st8{fill:none;stroke:#007D90;stroke-miterlimit:10;}
	.st9{fill:none;stroke:#999999;stroke-miterlimit:10;}
	.st10{fill-rule:evenodd;clip-rule:evenodd;fill:#007D90;}
	.st11{fill-rule:evenodd;clip-rule:evenodd;fill:#FFFFFF;}
	.st12{fill:none;stroke:#FD6D6D;stroke-miterlimit:10;}
	.st13{fill:none;stroke:#FD6D6D;stroke-miterlimit:10;stroke-dasharray:12,12;}
	.st14{fill:none;stroke:#FD6D6D;stroke-miterlimit:10;stroke-dasharray:14,14;}
	.st15{fill:none;stroke:#B3B3B3;stroke-miterlimit:10;}
	.st16{fill:none;stroke:#4D4D4D;stroke-miterlimit:10;}
	.st17{fill:#4D4D4D;}
	.st18{fill:none;stroke:#808080;stroke-miterlimit:10;}
	.st19{fill:none;stroke:#808080;stroke-linejoin:round;stroke-miterlimit:10;}
	.st20{opacity:0.8;fill:#FFFFFF;}
	.st21{fill:#808080;}
</style>
<path class="st11" d="M25,3.4c-12.2,0-22.2,9.9-22.2,22.2c0,9.8,6.3,18.1,15.2,21c1.1,0.2,1.5-0.5,1.5-1c0-0.5,0-2,0-3.8
	C13.3,43,12,38.8,12,38.8c-1-2.6-2.5-3.2-2.5-3.2c-2-1.4,0.2-1.3,0.2-1.3c2.2,0.2,3.4,2.3,3.4,2.3c2,3.4,5.2,2.4,6.4,1.8
	c0.2-1.4,0.8-2.4,1.4-3c-4.9-0.6-10.1-2.5-10.1-11c0-2.4,0.9-4.4,2.3-5.9c-0.2-0.6-1-2.8,0.2-5.9c0,0,1.9-0.6,6.1,2.3
	c1.8-0.5,3.7-0.7,5.5-0.7c1.9,0,3.8,0.3,5.5,0.7c4.2-2.9,6.1-2.3,6.1-2.3c1.2,3.1,0.4,5.3,0.2,5.9c1.4,1.5,2.3,3.5,2.3,5.9
	c0,8.5-5.2,10.4-10.1,10.9c0.8,0.7,1.5,2,1.5,4.1c0,2.8,0,5.4,0,6.1c0,0.6,0.4,1.2,1.5,1c8.8-2.9,15.1-11.2,15.1-21
	C47.2,13.3,37.2,3.4,25,3.4z"/>
</svg>
