<?xml version="1.0" encoding="utf-8"?>
<!-- Generator: Adobe Illustrator 19.0.1, SVG Export Plug-In . SVG Version: 6.00 Build 0)  -->
<svg version="1.1" id="Layer_1" xmlns="http://www.w3.org/2000/svg" xmlns:xlink="http://www.w3.org/1999/xlink" x="0px" y="0px"
	 viewBox="0 0 50 50" style="enable-background:new 0 0 50 50;" xml:space="preserve">
<style type="text/css">
	.st0{fill:none;stroke:#E6E6E6;stroke-miterlimit:10;}
	.st1{clip-path:url(#SVGID_2_);fill:#FD6D6D;}
	.st2{fill:#FD6D6D;}
	.st3{fill:#FFFFFF;}
	.st4{fill:#007D90;}
	.st5{fill:#B3B3B3;}
	.st6{fill:none;stroke:#007D90;stroke-width:2;stroke-miterlimit:10;}
	.st7{fill:none;stroke:#000000;stroke-miterlimit:10;}
	.st8{fill:none;stroke:#007D90;stroke-miterlimit:10;}
	.st9{fill:none;stroke:#999999;stroke-miterlimit:10;}
	.st10{fill-rule:evenodd;clip-rule:evenodd;fill:#007D90;}
	.st11{fill-rule:evenodd;clip-rule:evenodd;fill:#FFFFFF;}
	.st12{fill:none;stroke:#FD6D6D;stroke-miterlimit:10;}
	.st13{fill:none;stroke:#FD6D6D;stroke-miterlimit:10;stroke-dasharray:12,12;}
	.st14{fill:none;stroke:#FD6D6D;stroke-miterlimit:10;stroke-dasharray:14,14;}
	.st15{fill:none;stroke:#B3B3B3;stroke-miterlimit:10;}
	.st16{fill:none;stroke:#4D4D4D;stroke-miterlimit:10;}
	.st17{fill:#4D4D4D;}
	.st18{fill:none;stroke:#808080;stroke-miterlimit:10;}
	.st19{fill:none;stroke:#808080;stroke-linejoin:round;stroke-miterlimit:10;}
	.st20{opacity:0.8;fill:#FFFFFF;}
	.st21{fill:#808080;}
</style>
<g>
	<path class="st11" d="M33.4,15.9h-3c-0.4,0-0.8,0.3-0.8,0.8v3c0,0.4,0.3,0.8,0.8,0.8h3c0.4,0,0.8-0.3,0.8-0.8v-3
		C34.1,16.2,33.8,15.9,33.4,15.9z"/>
	<path class="st11" d="M32.6,25.2c0,4-3.4,7.3-7.6,7.3c-4.2,0-7.6-3.3-7.6-7.3c0-0.7,0.1-1.4,0.3-2.1l-1.9-0.4v10.7
		c0,0.5,0.2,0.8,0.8,0.8h16.8c0.5,0,0.8-0.2,0.8-0.8V22.7l-1.9,0.4C32.5,23.8,32.6,24.5,32.6,25.2z"/>
	<path class="st11" d="M25,2.8C12.8,2.8,2.8,12.8,2.8,25c0,12.2,9.9,22.2,22.2,22.2c12.2,0,22.2-9.9,22.2-22.2
		C47.2,12.8,37.2,2.8,25,2.8z M37.2,34.1c0,1.7-1.3,3-3,3H15.9c-1.7,0-3-1.3-3-3V15.9c0-0.2,0-0.4,0.1-0.6c-0.2-0.4-0.3-0.8-0.3-1.3
		c0-1.5,1.2-2.8,2.8-2.8c1.1,0,2.1,0.7,2.5,1.7h16.3c1.7,0,3,1.3,3,3V34.1z"/>
	<ellipse class="st11" cx="25" cy="25" rx="4.9" ry="4.7"/>
</g>
</svg>
