<?xml version="1.0" encoding="utf-8"?>
<!-- Generator: Adobe Illustrator 19.0.1, SVG Export Plug-In . SVG Version: 6.00 Build 0)  -->
<svg version="1.1" id="Layer_1" xmlns="http://www.w3.org/2000/svg" xmlns:xlink="http://www.w3.org/1999/xlink" x="0px" y="0px"
	 viewBox="0 0 50 50" style="enable-background:new 0 0 50 50;" xml:space="preserve">
<style type="text/css">
	.st0{fill:none;stroke:#E6E6E6;stroke-miterlimit:10;}
	.st1{clip-path:url(#SVGID_2_);fill:#FD6D6D;}
	.st2{fill:#FD6D6D;}
	.st3{fill:#FFFFFF;}
	.st4{fill:#007D90;}
	.st5{fill:#B3B3B3;}
	.st6{fill:none;stroke:#007D90;stroke-width:2;stroke-miterlimit:10;}
	.st7{fill:none;stroke:#000000;stroke-miterlimit:10;}
	.st8{fill:none;stroke:#007D90;stroke-miterlimit:10;}
	.st9{fill:none;stroke:#999999;stroke-miterlimit:10;}
	.st10{fill-rule:evenodd;clip-rule:evenodd;fill:#007D90;}
	.st11{fill-rule:evenodd;clip-rule:evenodd;fill:#FFFFFF;}
	.st12{fill:none;stroke:#FD6D6D;stroke-miterlimit:10;}
	.st13{fill:none;stroke:#FD6D6D;stroke-miterlimit:10;stroke-dasharray:12,12;}
	.st14{fill:none;stroke:#FD6D6D;stroke-miterlimit:10;stroke-dasharray:14,14;}
	.st15{fill:none;stroke:#B3B3B3;stroke-miterlimit:10;}
	.st16{fill:none;stroke:#4D4D4D;stroke-miterlimit:10;}
	.st17{fill:#4D4D4D;}
	.st18{fill:none;stroke:#808080;stroke-miterlimit:10;}
	.st19{fill:none;stroke:#808080;stroke-linejoin:round;stroke-miterlimit:10;}
	.st20{opacity:0.8;fill:#FFFFFF;}
	.st21{fill:#808080;}
</style>
<path class="st3" d="M25,2.8C12.8,2.8,2.8,12.8,2.8,25c0,9.1,5.5,16.9,13.3,20.3c-0.1-1.5,0-3.4,0.4-5.1c0.4-1.8,2.8-12.1,2.8-12.1
	s-0.7-1.4-0.7-3.5c0-3.3,1.9-5.7,4.3-5.7c2,0,3,1.5,3,3.3c0,2-1.3,5.1-2,7.9c-0.6,2.3,1.2,4.3,3.5,4.3c4.2,0,7-5.4,7-11.8
	c0-4.9-3.3-8.5-9.2-8.5c-6.7,0-10.9,5-10.9,10.6c0,1.9,0.6,3.3,1.5,4.3c0.4,0.5,0.5,0.7,0.3,1.2c-0.1,0.4-0.3,1.4-0.4,1.8
	c-0.1,0.6-0.6,0.8-1.1,0.6c-3.1-1.3-4.5-4.7-4.5-8.5c0-6.3,5.3-13.8,15.8-13.8c8.5,0,14,6.1,14,12.7c0,8.7-4.8,15.2-12,15.2
	c-2.4,0-4.6-1.3-5.4-2.8c0,0-1.3,5.1-1.6,6.1c-0.5,1.7-1.4,3.4-2.2,4.7c2,0.6,4.1,0.9,6.3,0.9c12.2,0,22.2-9.9,22.2-22.2
	C47.2,12.8,37.2,2.8,25,2.8z"/>
</svg>
