<?xml version="1.0" encoding="utf-8"?>
<!-- Generator: Adobe Illustrator 19.0.1, SVG Export Plug-In . SVG Version: 6.00 Build 0)  -->
<svg version="1.1" id="Layer_1" xmlns="http://www.w3.org/2000/svg" xmlns:xlink="http://www.w3.org/1999/xlink" x="0px" y="0px"
	 viewBox="0 0 50 50" style="enable-background:new 0 0 50 50;" xml:space="preserve">
<style type="text/css">
	.st0{fill:none;stroke:#E6E6E6;stroke-miterlimit:10;}
	.st1{clip-path:url(#SVGID_2_);fill:#FD6D6D;}
	.st2{fill:#FD6D6D;}
	.st3{fill:#FFFFFF;}
	.st4{fill:#007D90;}
	.st5{fill:#B3B3B3;}
	.st6{fill:none;stroke:#007D90;stroke-width:2;stroke-miterlimit:10;}
	.st7{fill:none;stroke:#000000;stroke-miterlimit:10;}
	.st8{fill:none;stroke:#007D90;stroke-miterlimit:10;}
	.st9{fill:none;stroke:#999999;stroke-miterlimit:10;}
	.st10{fill-rule:evenodd;clip-rule:evenodd;fill:#007D90;}
	.st11{fill-rule:evenodd;clip-rule:evenodd;fill:#FFFFFF;}
	.st12{fill:none;stroke:#FD6D6D;stroke-miterlimit:10;}
	.st13{fill:none;stroke:#FD6D6D;stroke-miterlimit:10;stroke-dasharray:12,12;}
	.st14{fill:none;stroke:#FD6D6D;stroke-miterlimit:10;stroke-dasharray:14,14;}
	.st15{fill:none;stroke:#B3B3B3;stroke-miterlimit:10;}
	.st16{fill:none;stroke:#4D4D4D;stroke-miterlimit:10;}
	.st17{fill:#4D4D4D;}
	.st18{fill:none;stroke:#808080;stroke-miterlimit:10;}
	.st19{fill:none;stroke:#808080;stroke-linejoin:round;stroke-miterlimit:10;}
	.st20{opacity:0.8;fill:#FFFFFF;}
	.st21{fill:#808080;}
</style>
<path class="st3" d="M25,2.8C12.8,2.8,2.8,12.8,2.8,25c0,12.2,9.9,22.2,22.2,22.2c12.2,0,22.2-9.9,22.2-22.2
	C47.2,12.8,37.2,2.8,25,2.8z M33.6,31.1c-1.9,2.6-4.2,5.1-7.1,6.8c-1.1,0.6-3.2,1.5-4.6,0.8c-2.8-1.2-3.7-6-4.5-9.2
	c-0.5-1.9-0.9-3.7-1.5-5.4c-0.4-1.2-0.6-2.5-1.3-3.7c-1.1-1.9-2.7-0.1-4.3-0.3c-0.7-0.1-0.8-0.9-1.3-1.3v-0.2c2.4-2,4.5-4.3,7.3-6
	c0.9-0.5,2.4-1.1,3.6-0.7c1.1,0.3,2,1.9,2.4,3.1c0.5,1.5,0.7,3.3,0.9,4.7c0.4,2.6,0.3,6.4,2.1,8.4c2.1,2.2,3.6-0.9,4.5-2.4
	c0.7-1.4,1.4-2.8,1.5-4.1c0.3-3.1-1.2-3.5-4-3.3c1.6-5,6.2-7,7.6-7.3c1.7-0.3,4.1-0.2,5.3,1.3c0.8,1.1,0.8,2.5,0.6,3.8
	C40.5,18.2,38.1,25,33.6,31.1z"/>
</svg>
