<?xml version="1.0" encoding="utf-8"?>
<!-- Generator: Adobe Illustrator 19.0.1, SVG Export Plug-In . SVG Version: 6.00 Build 0)  -->
<svg version="1.1" id="Layer_1" xmlns="http://www.w3.org/2000/svg" xmlns:xlink="http://www.w3.org/1999/xlink" x="0px" y="0px"
	 viewBox="0 0 50 50" style="enable-background:new 0 0 50 50;" xml:space="preserve">
<style type="text/css">
	.st0{fill:none;stroke:#E6E6E6;stroke-miterlimit:10;}
	.st1{clip-path:url(#SVGID_2_);fill:#FD6D6D;}
	.st2{fill:#FD6D6D;}
	.st3{fill:#FFFFFF;}
	.st4{fill:#007D90;}
	.st5{fill:#B3B3B3;}
	.st6{fill:none;stroke:#007D90;stroke-width:2;stroke-miterlimit:10;}
	.st7{fill:none;stroke:#000000;stroke-miterlimit:10;}
	.st8{fill:none;stroke:#007D90;stroke-miterlimit:10;}
	.st9{fill:none;stroke:#999999;stroke-miterlimit:10;}
	.st10{fill-rule:evenodd;clip-rule:evenodd;fill:#007D90;}
	.st11{fill-rule:evenodd;clip-rule:evenodd;fill:#FFFFFF;}
	.st12{fill:none;stroke:#FD6D6D;stroke-miterlimit:10;}
	.st13{fill:none;stroke:#FD6D6D;stroke-miterlimit:10;stroke-dasharray:12,12;}
	.st14{fill:none;stroke:#FD6D6D;stroke-miterlimit:10;stroke-dasharray:14,14;}
	.st15{fill:none;stroke:#B3B3B3;stroke-miterlimit:10;}
	.st16{fill:none;stroke:#4D4D4D;stroke-miterlimit:10;}
	.st17{fill:#4D4D4D;}
	.st18{fill:none;stroke:#808080;stroke-miterlimit:10;}
	.st19{fill:none;stroke:#808080;stroke-linejoin:round;stroke-miterlimit:10;}
	.st20{opacity:0.8;fill:#FFFFFF;}
	.st21{fill:#808080;}
</style>
<path class="st3" d="M25,2.8C12.8,2.8,2.8,12.8,2.8,25c0,12.2,9.9,22.2,22.2,22.2c12.2,0,22.2-9.9,22.2-22.2
	C47.2,12.8,37.2,2.8,25,2.8z M5.1,25c0-2.9,0.6-5.6,1.7-8.1l9.5,26C9.7,39.7,5.1,32.9,5.1,25z M25,44.9c-2,0-3.8-0.3-5.6-0.8l6-17.4
	l6.1,16.8c0,0.1,0.1,0.2,0.1,0.3C29.5,44.5,27.3,44.9,25,44.9z M27.7,15.7c1.2-0.1,2.3-0.2,2.3-0.2c1.1-0.1,0.9-1.7-0.1-1.6
	c0,0-3.2,0.3-5.3,0.3c-2,0-5.2-0.3-5.2-0.3c-1.1-0.1-1.2,1.6-0.1,1.6c0,0,1,0.1,2.1,0.2l3.1,8.5L20,37.2l-7.3-21.6
	c1.2-0.1,2.3-0.2,2.3-0.2c1.1-0.1,0.9-1.7-0.1-1.6c0,0-3.2,0.3-5.3,0.3c-0.4,0-0.8,0-1.3,0c3.6-5.4,9.7-9,16.6-9
	c5.2,0,9.9,2,13.5,5.2c-0.1,0-0.2,0-0.3,0c-2,0-3.3,1.7-3.3,3.5c0,1.6,0.9,3,2,4.7c0.8,1.3,1.6,3,1.6,5.5c0,1.7-0.7,3.7-1.5,6.4
	l-2,6.6L27.7,15.7z M42.5,15.4c1.6,2.8,2.4,6.1,2.4,9.6c0,7.4-4,13.8-9.9,17.2l6.1-17.6c1.1-2.8,1.5-5.1,1.5-7.1
	C42.6,16.8,42.6,16.1,42.5,15.4z"/>
</svg>
