<?xml version="1.0" encoding="utf-8"?>
<!-- Generator: Adobe Illustrator 19.0.1, SVG Export Plug-In . SVG Version: 6.00 Build 0)  -->
<svg version="1.1" id="Layer_1" xmlns="http://www.w3.org/2000/svg" xmlns:xlink="http://www.w3.org/1999/xlink" x="0px" y="0px"
	 viewBox="0 0 28 28" style="enable-background:new 0 0 28 28;" xml:space="preserve">
<style type="text/css">
	.st0{fill:none;stroke:#E6E6E6;stroke-miterlimit:10;}
	.st1{clip-path:url(#SVGID_2_);fill:#FD6D6D;}
	.st2{fill:#FD6D6D;}
	.st3{fill:#FFFFFF;}
	.st4{fill:#007D90;}
	.st5{fill:#B3B3B3;}
	.st6{fill:none;stroke:#007D90;stroke-width:2;stroke-miterlimit:10;}
	.st7{fill:none;stroke:#000000;stroke-miterlimit:10;}
	.st8{fill:none;stroke:#007D90;stroke-miterlimit:10;}
	.st9{fill:none;stroke:#999999;stroke-miterlimit:10;}
	.st10{fill-rule:evenodd;clip-rule:evenodd;fill:#007D90;}
	.st11{fill:none;stroke:#FD6D6D;stroke-miterlimit:10;}
	.st12{fill:none;stroke:#FD6D6D;stroke-miterlimit:10;stroke-dasharray:12,12;}
	.st13{fill:none;stroke:#FD6D6D;stroke-miterlimit:10;stroke-dasharray:14,14;}
	.st14{fill:none;stroke:#B3B3B3;stroke-miterlimit:10;}
	.st15{fill:none;stroke:#4D4D4D;stroke-miterlimit:10;}
	.st16{fill:#4D4D4D;}
	.st17{fill:none;stroke:#808080;stroke-miterlimit:10;}
	.st18{fill:none;stroke:#808080;stroke-linejoin:round;stroke-miterlimit:10;}
	.st19{opacity:0.8;fill:#FFFFFF;}
	.st20{fill:#808080;}
</style>
<path class="st2" d="M22.4,14.5c-1-0.3-1.3-2.7-0.4-3.2c0.3-0.2,0.5-0.4,0.6-0.7c-0.2-0.8-1-2-1.4-2.5c-0.3,0-0.6,0.1-0.9,0.2
	c-0.9,0.5-2.8-0.9-2.5-1.9c0.1-0.3,0-0.7,0-1c-0.5-0.3-1.8-0.6-2.7-0.7c-0.2,0.1-0.4,0.5-0.5,0.8c-0.3,1.1-2.7,1.3-3.2,0.4
	c-0.2-0.3-0.5-0.6-0.7-0.7c-0.6,0.2-1.9,0.9-2.4,1.4c0,0.3,0,0.7,0.2,1c0.5,0.9-0.9,2.8-2,2.6c-0.4-0.1-0.7-0.1-1,0.1
	c-0.3,0.6-0.6,2-0.7,2.6c0.1,0.2,0.5,0.4,0.8,0.5c1.5,0.4,1.5,2.6,0.4,3.2c-0.3,0.2-0.6,0.4-0.7,0.7c0.2,0.6,0.9,1.8,1.4,2.4
	c0.3,0,0.7,0,1-0.2c1-0.6,2.9,0.7,2.6,2c-0.1,0.3,0,0.6,0,1c0.7,0.3,2,0.7,2.8,0.7c0.2-0.2,0.4-0.5,0.5-0.8c0.3-1.1,2.6-1.4,3.2-0.4
	c0.2,0.3,0.4,0.5,0.6,0.7c0.8-0.2,2.1-1,2.5-1.4c0-0.3-0.1-0.6-0.3-0.9c-0.6-1,0.8-2.8,1.9-2.5c0.3,0.1,0.7,0.1,0.9,0
	c0.3-0.6,0.7-1.8,0.7-2.7C23,14.7,22.7,14.6,22.4,14.5z M18.9,15.2c-0.7,2.6-3.4,4.2-6,3.5c-2.6-0.7-4.2-3.4-3.5-6
	c0.7-2.6,3.4-4.2,6-3.5C18,9.9,19.6,12.6,18.9,15.2z"/>
</svg>
