<?xml version="1.0" encoding="utf-8"?>
<!-- Generator: Adobe Illustrator 16.0.3, SVG Export Plug-In . SVG Version: 6.00 Build 0)  -->
<!DOCTYPE svg PUBLIC "-//W3C//DTD SVG 1.1//EN" "http://www.w3.org/Graphics/SVG/1.1/DTD/svg11.dtd">
<svg version="1.1" id="Layer_1" xmlns="http://www.w3.org/2000/svg" xmlns:xlink="http://www.w3.org/1999/xlink" x="0px" y="0px"
	 width="50px" height="50px" viewBox="0 0 50 50" enable-background="new 0 0 50 50" xml:space="preserve">
<g>
	<circle id="dribbble_3_" fill="none" stroke="#FFFFFF" stroke-miterlimit="10" cx="25" cy="25.001" r="23.513"/>
	<path id="dribbble_2_" fill-rule="evenodd" clip-rule="evenodd" fill="#FFFFFF" d="M34.997,22.946
		c-0.134-0.655-0.335-1.302-0.595-1.918c-0.256-0.604-0.573-1.188-0.941-1.733c-0.364-0.54-0.784-1.049-1.244-1.509
		c-0.462-0.463-0.971-0.881-1.511-1.246c-0.545-0.37-1.129-0.686-1.733-0.942c-0.616-0.259-1.262-0.461-1.917-0.593
		c-0.673-0.138-1.364-0.208-2.056-0.208s-1.383,0.07-2.056,0.208c-0.655,0.131-1.301,0.334-1.917,0.593
		c-0.604,0.257-1.188,0.572-1.734,0.942c-0.539,0.364-1.048,0.783-1.51,1.246c-0.461,0.46-0.879,0.969-1.244,1.509
		c-0.368,0.545-0.686,1.129-0.942,1.733c-0.26,0.616-0.459,1.263-0.594,1.918c-0.138,0.67-0.208,1.363-0.208,2.054
		s0.07,1.384,0.208,2.056c0.135,0.655,0.334,1.301,0.594,1.917c0.257,0.604,0.574,1.189,0.942,1.734
		c0.365,0.54,0.783,1.048,1.244,1.51c0.462,0.461,0.971,0.879,1.51,1.244c0.546,0.368,1.13,0.686,1.734,0.941
		c0.616,0.261,1.262,0.46,1.917,0.594c0.673,0.14,1.364,0.209,2.056,0.209s1.383-0.069,2.056-0.209
		c0.655-0.134,1.301-0.333,1.917-0.594c0.604-0.256,1.188-0.573,1.733-0.941c0.54-0.365,1.049-0.783,1.511-1.244
		c0.46-0.462,0.88-0.97,1.244-1.51c0.368-0.545,0.686-1.13,0.941-1.734c0.26-0.616,0.461-1.262,0.595-1.917
		c0.138-0.672,0.208-1.364,0.208-2.056S35.135,23.616,34.997,22.946z M33.712,24.913c-0.126-0.028-3.075-0.663-6.069-0.286
		c-0.063-0.149-0.123-0.299-0.188-0.45c-0.181-0.426-0.376-0.848-0.579-1.263c3.441-1.406,4.839-3.427,4.855-3.45
		C32.952,20.949,33.691,22.845,33.712,24.913z M30.756,18.46c-0.021,0.034-1.263,1.923-4.553,3.156
		c-1.489-2.738-3.125-4.913-3.256-5.085c0.658-0.159,1.345-0.246,2.053-0.246C27.207,16.285,29.221,17.107,30.756,18.46z
		 M22.913,16.538C22.912,16.539,22.912,16.539,22.913,16.538c-0.001,0.001-0.012,0.003-0.028,0.008
		C22.895,16.542,22.903,16.542,22.913,16.538z M21.281,17.118c0.116,0.154,1.729,2.34,3.236,5.021
		c-4.184,1.112-7.815,1.067-8.047,1.064C17.038,20.505,18.852,18.267,21.281,17.118z M16.286,25c0-0.094,0.003-0.185,0.007-0.275
		c0.153,0.003,4.46,0.1,8.946-1.242c0.251,0.489,0.489,0.985,0.708,1.481c-0.116,0.031-0.23,0.066-0.344,0.104
		c-4.703,1.52-7.089,5.751-7.089,5.751l0.003,0.005C17.13,29.279,16.286,27.238,16.286,25z M25,33.715
		c-2.109,0-4.043-0.75-5.551-1.998c0.114,0.094,0.195,0.152,0.195,0.152s1.67-3.642,6.839-5.443
		c0.019-0.007,0.038-0.013,0.058-0.019c1.227,3.187,1.733,5.856,1.862,6.618C27.357,33.469,26.207,33.715,25,33.715z M29.87,32.229
		c-0.089-0.526-0.553-3.085-1.696-6.226c2.813-0.45,5.251,0.321,5.432,0.381C33.217,28.813,31.827,30.906,29.87,32.229z"/>
</g>
</svg>
