<?xml version="1.0" encoding="utf-8"?>
<!-- Generator: Adobe Illustrator 16.0.3, SVG Export Plug-In . SVG Version: 6.00 Build 0)  -->
<!DOCTYPE svg PUBLIC "-//W3C//DTD SVG 1.1//EN" "http://www.w3.org/Graphics/SVG/1.1/DTD/svg11.dtd">
<svg version="1.1" id="Layer_1" xmlns="http://www.w3.org/2000/svg" xmlns:xlink="http://www.w3.org/1999/xlink" x="0px" y="0px"
	 width="50px" height="50px" viewBox="0 0 50 50" enable-background="new 0 0 50 50" xml:space="preserve">
<g>
	<circle id="pinterest_3_" fill="none" stroke="#FFFFFF" stroke-miterlimit="10" cx="25" cy="25.001" r="23.513"/>
	<path id="pinterest_2_" fill="#FFFFFF" d="M26.001,14.795c-5.636,0-10.206,4.569-10.206,10.205c0,4.178,2.514,7.769,6.11,9.346
		c-0.029-0.711-0.006-1.568,0.177-2.343c0.196-0.828,1.313-5.561,1.313-5.561s-0.325-0.651-0.325-1.615
		c0-1.512,0.876-2.641,1.968-2.641c0.928,0,1.377,0.697,1.377,1.533c0,0.933-0.596,2.328-0.901,3.621
		c-0.256,1.083,0.542,1.965,1.61,1.965c1.934,0,3.235-2.482,3.235-5.425c0-2.236-1.506-3.911-4.246-3.911
		c-3.095,0-5.023,2.309-5.023,4.887c0,0.889,0.263,1.516,0.673,2.001c0.188,0.224,0.214,0.313,0.146,0.569
		c-0.049,0.187-0.161,0.64-0.208,0.818c-0.067,0.259-0.277,0.352-0.511,0.255c-1.426-0.581-2.09-2.142-2.09-3.897
		c0-2.899,2.443-6.375,7.293-6.375c3.896,0,6.459,2.82,6.459,5.846c0,4.003-2.224,6.993-5.505,6.993
		c-1.102,0-2.138-0.595-2.493-1.271c0,0-0.593,2.352-0.718,2.805c-0.216,0.787-0.64,1.572-1.026,2.187
		c0.917,0.271,1.887,0.419,2.892,0.419c5.635,0,10.204-4.569,10.204-10.205S31.636,14.795,26.001,14.795"/>
</g>
</svg>
