<?xml version="1.0" encoding="utf-8"?>
<!-- Generator: Adobe Illustrator 16.0.3, SVG Export Plug-In . SVG Version: 6.00 Build 0)  -->
<!DOCTYPE svg PUBLIC "-//W3C//DTD SVG 1.1//EN" "http://www.w3.org/Graphics/SVG/1.1/DTD/svg11.dtd">
<svg version="1.1" id="Layer_1" xmlns="http://www.w3.org/2000/svg" xmlns:xlink="http://www.w3.org/1999/xlink" x="0px" y="0px"
	 width="137.66px" height="80px" viewBox="0 -6.727 137.66 80" enable-background="new 0 -6.727 137.66 80" xml:space="preserve">
<g id="TEMP">
</g>
<g id="BLOG">
</g>
<g id="BLOG_ROLL">
</g>
<g id="APP_PAGE">
</g>
<g id="APP_PAGE_2">
	<g id="Layer_8">
	</g>
	<g id="Layer_7">
	</g>
</g>
<g id="APP_LOGIN">
</g>
<g>
	<g>
		<path fill="none" stroke="#FFFFFF" stroke-width="2" stroke-linecap="round" stroke-linejoin="round" stroke-miterlimit="10" d="
			M75.094,28.852c0-6.665,5.22-4.902,5.22-9.065c0-4.164-3.375-7.492-7.538-7.492h0.001c-4.164,0-7.538,3.328-7.538,7.492
			c0,4.163,5.221,2.425,5.221,9.09"/>
		<g>
			<circle fill="none" stroke="#FFFFFF" stroke-width="2" stroke-miterlimit="10" cx="70.082" cy="18.374" r="1.451"/>
			<circle fill="none" stroke="#FFFFFF" stroke-width="2" stroke-miterlimit="10" cx="75.469" cy="18.374" r="1.451"/>
		</g>
		<g>
			
				<line fill="none" stroke="#FFFFFF" stroke-width="2" stroke-linecap="round" stroke-linejoin="round" stroke-miterlimit="10" x1="70.83" y1="25.273" x2="70.83" y2="29.273"/>
			
				<line fill="none" stroke="#FFFFFF" stroke-width="2" stroke-linecap="round" stroke-linejoin="round" stroke-miterlimit="10" x1="72.83" y1="25.273" x2="72.83" y2="29.273"/>
		</g>
		
			<polyline fill="none" stroke="#FFFFFF" stroke-width="2" stroke-linecap="round" stroke-linejoin="round" stroke-miterlimit="10" points="
			71.657,22.28 72.864,21.072 74.07,22.28 		"/>
		<g>
			
				<polyline fill="none" stroke="#FFFFFF" stroke-width="2" stroke-linecap="round" stroke-linejoin="round" stroke-miterlimit="10" points="
				85.147,30.356 83.561,29.728 84.188,28.14 			"/>
			
				<polyline fill="none" stroke="#FFFFFF" stroke-width="2" stroke-linecap="round" stroke-linejoin="round" stroke-miterlimit="10" points="
				60.438,35.822 62.024,36.447 61.397,38.035 			"/>
		</g>
		<path fill="none" stroke="#FFFFFF" stroke-width="2" stroke-linecap="round" stroke-linejoin="round" stroke-miterlimit="10" d="
			M72.864,23.486"/>
		
			<line fill="none" stroke="#FFFFFF" stroke-width="2" stroke-linecap="round" stroke-linejoin="round" stroke-miterlimit="10" x1="83.582" y1="29.747" x2="61.967" y2="36.43"/>
		<g>
			
				<polyline fill="none" stroke="#FFFFFF" stroke-width="2" stroke-linecap="round" stroke-linejoin="round" stroke-miterlimit="10" points="
				60.438,30.356 62.024,29.728 61.397,28.14 			"/>
			
				<polyline fill="none" stroke="#FFFFFF" stroke-width="2" stroke-linecap="round" stroke-linejoin="round" stroke-miterlimit="10" points="
				85.147,35.822 83.561,36.447 84.188,38.035 			"/>
		</g>
		
			<line fill="none" stroke="#FFFFFF" stroke-width="2" stroke-linecap="round" stroke-linejoin="round" stroke-miterlimit="10" x1="62.004" y1="29.747" x2="83.618" y2="36.43"/>
	</g>
	<path fill="none" stroke="#FFFFFF" stroke-width="2" stroke-linecap="round" stroke-linejoin="round" stroke-miterlimit="10" d="
		M23.323,53.932"/>
	<path fill="none" stroke="#FFFFFF" stroke-width="2" stroke-linecap="round" stroke-linejoin="round" stroke-miterlimit="10" d="
		M27.042,43.785c0,0,12.33-40.512,20.603-40.512h0.781c0,0,39.539,0,47.81,0s20.063,39.688,20.063,39.688l14.615,8.844
		c3.018,0,4.916,2.18,4.916,5.195v0.02c0,3.016-1.523,6.254-4.541,6.254H8.813c-3.016,0-6.984-3.238-6.984-6.254V57
		c0-3.016,3.969-4.727,6.984-4.727H43.83"/>
</g>
</svg>
