<?xml version="1.0" encoding="UTF-8" standalone="no"?>
<!-- Created with Inkscape (http://www.inkscape.org/) -->

<svg
   xmlns:dc="http://purl.org/dc/elements/1.1/"
   xmlns:cc="http://creativecommons.org/ns#"
   xmlns:rdf="http://www.w3.org/1999/02/22-rdf-syntax-ns#"
   xmlns:svg="http://www.w3.org/2000/svg"
   xmlns="http://www.w3.org/2000/svg"
   xmlns:sodipodi="http://sodipodi.sourceforge.net/DTD/sodipodi-0.dtd"
   xmlns:inkscape="http://www.inkscape.org/namespaces/inkscape"
   width="300"
   height="300"
   viewBox="0 0 300 300"
   id="svg2"
   version="1.1"
   inkscape:version="0.91 r13725"
   sodipodi:docname="profile.svg">
  <defs
     id="defs4" />
  <sodipodi:namedview
     id="base"
     pagecolor="#ffffff"
     bordercolor="#666666"
     borderopacity="1.0"
     inkscape:pageopacity="0.0"
     inkscape:pageshadow="2"
     inkscape:zoom="0.49497475"
     inkscape:cx="164.55275"
     inkscape:cy="419.92631"
     inkscape:document-units="px"
     inkscape:current-layer="layer1"
     showgrid="false"
     units="px"
     inkscape:window-width="1920"
     inkscape:window-height="1017"
     inkscape:window-x="-8"
     inkscape:window-y="-8"
     inkscape:window-maximized="1" />
  <metadata
     id="metadata7">
    <rdf:RDF>
      <cc:Work
         rdf:about="">
        <dc:format>image/svg+xml</dc:format>
        <dc:type
           rdf:resource="http://purl.org/dc/dcmitype/StillImage" />
        <dc:title></dc:title>
      </cc:Work>
    </rdf:RDF>
  </metadata>
  <g
     inkscape:label="Layer 1"
     inkscape:groupmode="layer"
     id="layer1"
     transform="translate(0,-752.36216)">
    <path
       style="fill:#000000"
       d="m 151.02326,782.16657 a 86.30012,86.30012 0 0 0 -86.300312,86.3003 86.30012,86.30012 0 0 0 86.300312,86.30029 86.30012,86.30012 0 0 0 86.30029,-86.30029 86.30012,86.30012 0 0 0 -86.30029,-86.3003 z M 72.778678,924.11992 A 145.8131,153.25156 0 0 0 3.694646,1050.5042 l 291.322724,0 a 145.8131,153.25156 0 0 0 -68.7334,-126.29412 77.459921,77.459921 0 0 1 -76.75622,67.63004 77.459921,77.459921 0 0 1 -76.749072,-67.7202 z"
       id="path3338"
       inkscape:connector-curvature="0" />
    <path
       style="fill:#000000"
       d="m 1032.3754,440.20913 0,46.32618 a 165.81277,165.81277 0 0 0 -23.2226,9.28906 l -32.52542,-32.52344 -75.71289,75.71485 32.96875,32.96874 a 165.81277,165.81277 0 0 0 -9.22461,22.7793 l -46.83594,0 0,107.07617 49.68555,0 a 165.81277,165.81277 0 0 0 9.02929,20.12305 l -35.62304,35.62305 75.71289,75.71486 38.06642,-38.0645 a 165.81277,165.81277 0 0 0 17.6816,6.8809 l 0,54.2754 107.0762,0 0,-56.4199 a 165.81277,165.81277 0 0 0 15.7676,-6.6524 l 39.9804,39.9805 75.7149,-75.71486 -39.6875,-39.6875 a 165.81277,165.81277 0 0 0 6.9336,-16.0586 l 55.8457,0 0,-107.07617 -53.0606,0 a 165.81277,165.81277 0 0 0 -7.1269,-18.65234 l 37.0957,-37.0957 -75.7149,-75.71485 -34.5898,34.58985 a 165.81277,165.81277 0 0 0 -21.1582,-9.2754 l 0,-48.40625 -107.0762,0 z m 50.5078,89.04102 A 115.00964,115.00964 0 0 1 1197.893,644.25992 115.00964,115.00964 0 0 1 1082.8832,759.26968 115.00964,115.00964 0 0 1 967.87347,644.25992 115.00964,115.00964 0 0 1 1082.8832,529.25015 Z"
       id="rect3373"
       inkscape:connector-curvature="0" />
  </g>
</svg>
