<?xml version="1.0" encoding="utf-8"?>
<!-- Generator: Adobe Illustrator 19.1.0, SVG Export Plug-In . SVG Version: 6.00 Build 0)  -->
<svg version="1.1" id="Layer_1" xmlns="http://www.w3.org/2000/svg" xmlns:xlink="http://www.w3.org/1999/xlink" x="0px" y="0px"
	 viewBox="0 0 40 40" enable-background="new 0 0 40 40" xml:space="preserve">
<path fill="#FF6666" d="M32,40H8c-4.4,0-8-3.6-8-8V8c0-4.4,3.6-8,8-8h24c4.4,0,8,3.6,8,8v24C40,36.4,36.4,40,32,40z"/>
<path id="person" fill="#FFFFFF" d="M33.3,29.9c-1.2-3.2-3.2-3.9-4.9-4.2c-1.4-0.2-3.1-0.8-3.7-1.1c0-0.3,0-0.8,0-1.7l0.1-0.1l0,0
	c0.8-1.1,1.2-2.1,1.4-2.8c0.5-0.4,1.1-1.1,1.4-2.5c0.2-0.8,0.3-1.8-0.3-2.5c0,0,0,0,0-0.1c0.5-5.1-2.7-7.7-4.7-8.3l0,0l0,0
	c-0.7-0.2-1.4-0.3-2.1-0.3c-0.2,0-0.3,0-0.4,0c-0.1,0-0.3,0-0.4,0c-0.6,0-1.3,0.1-2.1,0.3l0,0l0,0c-2,0.6-5.2,3.2-4.7,8.3
	c0,0,0,0,0,0.1c-0.6,0.7-0.4,1.7-0.3,2.5c0.3,1.4,0.9,2.1,1.4,2.5c0.2,0.7,0.6,1.7,1.3,2.8l0,0l0,0c0,0.1,0.1,0.1,0.1,0.2
	c0.1,0.9,0,1.4,0,1.7c-0.6,0.3-2.3,0.8-3.7,1.1c-1.6,0.3-3.7,1-4.9,4.2c-0.2,0.5-0.1,1.1,0.2,1.6c1.2,1.8,7.7,2.2,13,2.2
	c5.2,0,11.7-0.4,13-2.2C33.4,31,33.5,30.4,33.3,29.9z M15.1,19c-0.2,0-0.8-0.1-1.2-1.8c-0.4-1.4,0-1.6,0.2-1.6c0.1,0,0.2,0,0.2,0
	C13.1,9.4,18,7.8,18,7.8c0.7-0.2,1.2-0.3,1.7-0.3c0.2,0,0.3,0,0.4,0c0.1,0,0.3,0,0.4,0c0.5,0,1,0.1,1.7,0.3c0,0,4.8,1.7,3.7,7.9
	c0,0,0.1,0,0.2,0c0.2,0,0.6,0.2,0.3,1.5C26,18.9,25.3,19,25.2,19l0,0c0,0-0.1,1.6-1.6,3.4l0,0c-1.2,1.2-2.3,1.7-3.5,1.7
	c-1.5-0.1-2.6-1.1-3.2-1.7l0,0C15.2,20.5,15.1,19,15.1,19L15.1,19z M20.1,32.3c-6.2,0-12.4-0.7-11.9-2c1-2.6,2.6-3.1,3.9-3.4
	c1.3-0.2,4.4-1,4.6-1.7c0.1-0.2,0.1-0.6,0.1-1.1c0.8,0.6,1.8,1.1,3.1,1.2c0.1,0,0.1,0,0.2,0c1.1,0,2.2-0.4,3.3-1.2
	c0,0.5,0,0.9,0.1,1.1c0.3,0.7,3.4,1.5,4.6,1.7c1.3,0.2,2.9,0.7,3.9,3.4C32.5,31.6,26.3,32.3,20.1,32.3z"/>
<path id="cog" display="none" fill="#FFFFFF" d="M28.4,20.5c-1-0.3-1.3-2.7-0.4-3.2c0.3-0.2,0.5-0.4,0.6-0.7c-0.2-0.8-1-2-1.4-2.5
	c-0.3,0-0.6,0.1-0.9,0.2c-0.9,0.5-2.8-0.9-2.5-1.9c0.1-0.3,0-0.7,0-1c-0.5-0.3-1.8-0.6-2.7-0.7c-0.2,0.1-0.4,0.5-0.5,0.8
	c-0.3,1.1-2.7,1.3-3.2,0.4c-0.2-0.3-0.5-0.6-0.7-0.7c-0.6,0.2-1.9,0.9-2.4,1.4c0,0.3,0,0.7,0.2,1c0.5,0.9-0.9,2.8-2,2.6
	c-0.4-0.1-0.7-0.1-1,0.1c-0.3,0.6-0.6,2-0.7,2.6c0.1,0.2,0.5,0.4,0.8,0.5c1.5,0.4,1.5,2.6,0.4,3.2c-0.3,0.2-0.6,0.4-0.7,0.7
	c0.2,0.6,0.9,1.8,1.4,2.4c0.3,0,0.7,0,1-0.2c1-0.6,2.9,0.7,2.6,2c-0.1,0.3,0,0.6,0,1c0.7,0.3,2,0.7,2.8,0.7c0.2-0.2,0.4-0.5,0.5-0.8
	c0.3-1.1,2.6-1.4,3.2-0.4c0.2,0.3,0.4,0.5,0.6,0.7c0.8-0.2,2.1-1,2.5-1.4c0-0.3-0.1-0.6-0.3-0.9c-0.6-1,0.8-2.8,1.9-2.5
	c0.3,0.1,0.7,0.1,0.9,0c0.3-0.6,0.7-1.8,0.7-2.7C29,20.7,28.8,20.6,28.4,20.5z M24.9,21.2c-0.7,2.6-3.4,4.2-6,3.5
	c-2.6-0.7-4.2-3.4-3.5-6s3.4-4.2,6-3.5C24,15.9,25.6,18.6,24.9,21.2z"/>
</svg>
